<svg id="Capa_1" enable-background="new 0 0 512 512" height="512" viewBox="0 0 512 512" width="512" xmlns="http://www.w3.org/2000/svg"><g><g><g><path d="m303.602 370.966-8.667-24.118h-86.589l-13.064 24.318-20.685 16.18 19.501 65.511 30.004 20.624c8.516 1.011 17.183 1.531 25.969 1.531 8.636 0 17.153-.5 25.529-1.481l30.397-19.667 10.546-61.87z" fill="#6bd9e7"/><path d="m172.811 381.346-62.982-26.451-13.51-43.959-47.445-13.297-6.555 27.975c20.565 61.355 67.55 110.591 127.434 134.209l25.529-2.989z" fill="#2ed1e2"/><path d="m398.952 257.503-7.536-34.397-65.31 3.623-14.301 30.775h-.949v.307l-30.389 9.836-4.867 69.75 28.001 33.569 12.943 33.281 57.782-15.399 9.415-26.327 23.09 5.499 7.299-77.115z" fill="#6bd9e7"/><path d="m210.647 284.26-22.941-26.758-8.104-24.48h-67.816l-15.467 24.48-20.4 14.876 7.462 58.298 26.447 24.218 17.028 24.139 56.362 9.814 12.063-17.681 22.297-15.091z" fill="#6bd9e7"/><path d="m105.706 143.759-31.569 4.783-25.263 20.646c-11.498 26.61-17.863 55.951-17.863 86.774 0 .51 0 1.031.01 1.541l14.597 14.876h39.48l11.222-14.876 35.286-23.337 4.147-54.574z" fill="#2ed1e2"/><path d="m302.981 143.759-12.362-21.849h-76.683l-18.654 21.929-22.471 18.064-4.201 81.318 19.096 14.282 10.566 20.288h99.314l13.271-20.288 20.743-18.47v-69.029z" fill="#6bd9e7"/><path d="m415.719 6.856c-37.09-.874-67.432 28.932-67.432 65.824 0 14.705 4.824 28.281 12.971 39.24l29.765 41.043c4.885 6.735 8.314 14.413 10.072 22.546l2.228 10.31c1.1 5.089 5.601 8.721 10.808 8.721s9.708-3.633 10.808-8.721l2.228-10.31c1.757-8.132 5.188-15.81 10.071-22.545l29.765-41.043c8.343-11.223 13.201-25.192 12.962-40.306-.556-35.136-29.116-63.931-64.246-64.759z" fill="#ee6161"/><path d="m356.069 41.634c-4.958 9.252-7.782 19.817-7.782 31.047 0 14.705 4.824 28.281 12.971 39.24l29.765 41.043c4.885 6.735 8.314 14.413 10.072 22.546l2.228 10.31c.002.008.005.016.007.025 5.875 2.167 11.519 4.456 16.906 6.853 2.34-1.551 4.075-3.976 4.702-6.878l2.228-10.31c1.757-8.132 5.188-15.81 10.071-22.545l16.3-22.476c-23.463-37.898-57.265-68.903-97.468-88.855z" fill="#e94444"/><path d="m357.59 69.75-34.104-20.241c-16.842-5.994-34.646-9.987-53.109-11.679 0 0-17.461 14.139-19.743 15.66-2.281 1.521 6.843 68.178 6.843 68.178l45.504 22.09 16.749 25.197 59.63 5.27 6.912-15.015 15.672-23.348z" fill="#6bd9e7"/><path d="m226.105 38.201c-42.241 4.593-80.87 21.196-112.413 46.324l-7.986 74.155 3.9 14.119 57.067 6.791 28.609-35.752 30.823-16.983 13.811-52.505z" fill="#6bd9e7"/><path d="m389.898 51.708c5.875-6.788 14.552-11.078 24.232-11.078 17.701 0 32.049 14.353 32.049 32.053 0 8.021-2.944 15.351-7.817 20.97-5.875 6.788-14.552 11.078-24.232 11.078-17.701 0-32.049-14.348-32.049-32.049 0-8.02 2.946-15.351 7.817-20.974z" fill="#f9f7f8"/><path d="m414.13 104.731c6.22 0 12.02-1.778 16.933-4.846-13.433-15.561-28.837-29.394-45.826-41.085-2.022 4.201-3.156 8.909-3.156 13.882 0 17.702 14.349 32.049 32.049 32.049z" fill="#efedef"/><g id="XMLID_141_"><g><path d="m443.136 328.178-56.47 3.264-21.87 31.079-48.253 67.66 9.054 31.463c51.778-19.014 94.379-57.012 119.368-105.568z" fill="#2ed1e2"/><path d="m352.114 449.821c39.747-20.96 72.27-53.772 92.845-93.751l-1.83-27.898-56.47 3.264-21.87 31.079-37.678 52.832z" fill="#02c7dd"/><path d="m392.495 228.027c-54.072 7.049-95.966 53.407-95.966 109.37 0 10.294 1.403 20.372 4.131 30.042l2.942 3.527 9.674 24.876c1.538 2.452 3.176 4.855 4.918 7.202l.463.639 55.669-14.837 9.415-26.327 23.09 5.499 7.299-77.115-15.178-33.402z" fill="#2ed1e2"/><g fill="#a6e7f0"><path d="m303.602 370.966 80.139-8.446c-12.9 42.171-33.255 76.847-58.143 99.123-15.882 5.834-32.624 9.877-49.997 11.889 11.949-21.846 21.786-57.943 28.001-102.566z"/><path d="m195.282 371.166c6.425 44.973 16.562 81.08 28.821 102.315-18.964-2.232-37.187-6.895-54.35-13.66-26.189-24.758-47.205-61.325-59.924-104.927 25.649 7.636 54.51 13.23 85.453 16.272z"/></g></g></g><path d="m310.857 257.503v2.042c0 40.28-2.622 78.208-7.255 111.422l-11.959 1.261c-13.69 1.031-27.74 1.571-42.071 1.571-18.634 0-36.797-.911-54.29-2.632-4.834-33.745-7.576-72.473-7.576-113.664z" fill="#2ed1e2"/><path d="m459.346 191.004-15.091-24.921-47.085-17.542-10.898 10.669-19.159 11.765 9.156 68.058s22.683 19.47 22.683 18.47l2.992 17.236 55.369 3.052 11.811-20.288c.01-.51.01-1.031.01-1.541-.001-22.617-3.423-44.433-9.788-64.958z" fill="#2ed1e2"/><path d="m398.952 257.503h70.172c-.24 35.496-8.927 68.991-24.158 98.573l-61.225 6.445c9.637-31.514 15.111-67.201 15.211-105.018z" fill="#02c7dd"/><path d="m111.628 272.379c0-13.347.759-26.481 2.2-39.356h-2.042l-15.467 24.48-20.4 14.876 7.462 58.299 26.447 24.218 17.028 24.139 1.553.27c-10.828-33.148-16.781-69.207-16.781-106.926z" fill="#2ed1e2"/><path d="m96.319 257.503c0 34.716 4.824 67.69 13.51 97.392-26.249-7.806-49.146-17.743-67.51-29.282-7.175-21.416-11.138-44.313-11.298-68.11z" fill="#6bd9e7"/><path d="m398.951 256.498v1.001h-81.99-6.104c-.09-41.3-2.942-80.069-7.876-113.744 30.052 2.892 58.163 8.206 83.291 15.451 8.135 29.592 12.679 62.556 12.679 97.292z" fill="#a6e7f0"/><path d="m105.706 158.68 3.9 14.119 22.515 2.679 29.237-40.314c12.17-16.416 18.431-35.92 18.107-56.411-.155-9.803-1.88-19.374-5.006-28.444-22.156 8.149-42.633 19.769-60.767 34.214z" fill="#02c7dd"/><path d="m105.706 143.759-31.569 4.783-25.263 20.646c-1.414 3.272-2.748 6.587-4.005 9.939l.731 1.008c3.756 5.18 6.346 10.976 7.697 17.23l2.446 11.319c3.176 14.696 16.394 25.363 31.429 25.363s28.253-10.667 31.429-25.363l2.446-11.319c1.352-6.255 3.941-12.051 7.697-17.23l3.462-4.773z" fill="#02c7dd"/><path d="m195.282 143.839c-4.834 33.745-7.576 72.473-7.576 113.664h-91.387c0-4.884.11-9.727.3-14.541l9.087-84.282 58.853-10.888c9.978-1.601 20.235-2.922 30.723-3.953z" fill="#a6e7f0"/><path d="m323.486 49.509c64.718 23.017 115.425 75.596 135.86 141.494-19.454-12.669-44.323-23.497-73.074-31.793-13.009-47.325-35.225-86.053-62.786-109.701z" fill="#a6e7f0"/><path d="m272.429 40.183c12.98 20.365 23.747 57.132 30.552 103.576-17.223-1.671-35.096-2.552-53.409-2.552-18.624 0-36.787.911-54.29 2.632 6.775-47.405 17.663-84.963 30.823-105.638 7.866-.861 15.872-1.301 23.968-1.301 6.845 0 13.62.31 20.305.931z" fill="#2ed1e2"/><path d="m113.692 84.525-7.986 74.155-56.832 10.508c14.381-33.315 36.797-62.346 64.818-84.663z" fill="#2ed1e2"/><g><path d="m469.121 257.495c.01-.51.01-1.031.01-1.541 0-3.228-.078-6.438-.216-9.631-17.466-11.991-37.981-18.698-59.438-19.203-.884-.021-1.77-.031-2.649-.031-10.96 0-21.548 1.614-31.548 4.604l.987 7.331s22.683 19.47 22.683 18.47l2.992 17.236 55.369 3.052z" fill="#02c7dd"/><path d="m398.952 257.503c0-.33 0-.671 0-1.001 0-9.836-.365-19.528-1.072-29.044-25.868 2.091-49.255 13.145-67.019 30.045z" fill="#6bd9e7"/><path d="m296.529 337.397c0 11.622 1.793 22.966 5.259 33.76l1.814-.191c3.697-26.5 6.108-56.005 6.934-87.305-8.914 15.911-14.007 34.238-14.007 53.736z" fill="#02c7dd"/><path d="m303.046 374.838c3.609 9.992 8.67 19.475 15.144 28.204l27.036 37.274c15.995-20.79 29.194-47.341 38.511-77.799l-80.139 8.446c-.181 1.299-.366 2.59-.552 3.875z" fill="#6bd9e7"/><path d="m409.009 247.137c-50.859-1.198-92.465 39.672-92.465 90.26 0 20.164 6.615 38.78 17.785 53.807l40.815 56.279c6.698 9.236 11.401 19.764 13.811 30.915l3.055 14.137c1.508 6.978 7.681 11.959 14.82 11.959s13.312-4.981 14.82-11.959l3.055-14.137c2.41-11.151 7.113-21.679 13.811-30.915l40.815-56.279c11.44-15.39 18.102-34.543 17.774-55.269-.763-48.178-39.924-87.663-88.096-88.798z" fill="#ee6161"/><path d="m420.699 472.225c-2.41-11.151-7.113-21.679-13.811-30.915l-40.815-56.279c-11.171-15.027-17.785-33.644-17.785-53.807 0-38.254 23.805-70.953 57.398-84.105-49.33.619-89.142 40.802-89.142 90.28 0 20.164 6.615 38.78 17.785 53.807l40.815 56.279c6.698 9.236 11.401 19.764 13.811 30.915l3.055 14.137c1.508 6.978 7.681 11.959 14.82 11.959s13.312-4.981 14.82-11.959l1.719-7.954z" fill="#e94444"/><path d="m373.603 308.639c8.057-9.307 19.955-15.19 33.227-15.19 24.272 0 43.946 19.68 43.946 43.952 0 10.998-4.037 21.051-10.719 28.755-8.057 9.307-19.955 15.19-33.227 15.19-24.272 0-43.946-19.674-43.946-43.946 0-10.999 4.038-21.05 10.719-28.761z" fill="#f9f7f8"/><path d="m132.498 153.788-26.792 4.892-9.087 84.282c-.19 4.814-.3 9.657-.3 14.541h15.622c1.533-36.776 8.732-71.702 20.557-103.715z" fill="#6bd9e7"/><path d="m120.72 197.677c1.352-6.255 3.941-12.051 7.697-17.23l21.868-30.014-44.579 8.247-7.928 73.536c10.305-3.647 18.098-12.127 20.496-23.22z" fill="#2ed1e2"/><path d="m88.916 7.974c-40.721-.96-74.033 31.764-74.033 72.268 0 16.144 5.296 31.05 14.24 43.082l32.679 45.06c5.363 7.394 9.129 15.824 11.058 24.752l2.446 11.319c1.208 5.587 6.15 9.575 11.866 9.575s10.658-3.988 11.866-9.575l2.446-11.319c1.929-8.929 5.695-17.358 11.058-24.752l32.679-45.061c9.16-12.322 14.494-27.657 14.23-44.252-.61-38.575-31.965-70.189-70.535-71.097z" fill="#ee6161"/><path d="m99.38 193.136c-1.929-8.929-5.695-17.358-11.058-24.752l-32.679-45.06c-8.945-12.032-14.24-26.937-14.24-43.082 0-35.373 25.432-64.823 58.992-71.074-3.73-.696-7.578-1.102-11.479-1.194-40.72-.96-74.032 31.764-74.032 72.268 0 16.144 5.296 31.05 14.24 43.082l32.679 45.06c5.363 7.394 9.129 15.824 11.058 24.752l2.446 11.319c1.208 5.587 6.15 9.575 11.866 9.575s10.658-3.988 11.866-9.575l1.394-6.453z" fill="#e94444"/><path d="m60.569 57.216c6.451-7.452 15.977-12.163 26.604-12.163 19.433 0 35.186 15.758 35.186 35.191 0 8.806-3.232 16.854-8.582 23.024-6.451 7.452-15.977 12.163-26.604 12.163-19.433 0-35.186-15.753-35.186-35.186-.001-8.806 3.232-16.855 8.582-23.029z" fill="#f9f7f8"/></g><path d="m122.332 358.379c-4.243-1.111-8.418-2.269-12.502-3.485 11.886 40.745 31.018 75.343 54.844 99.907-18.79-28.379-33.287-60.984-42.342-96.422z" fill="#6bd9e7"/></g></g><g><path d="m445.729 371.072c8.095-9.336 12.553-21.294 12.553-33.672 0-28.374-23.081-51.458-51.452-51.458-14.939 0-29.117 6.481-38.901 17.782-8.094 9.342-12.551 21.302-12.551 33.676 0 28.371 23.081 51.452 51.452 51.452 14.941-.001 29.12-6.482 38.899-17.78zm-75.339-33.672c0-8.764 3.155-17.234 8.886-23.847 0-.001.001-.002.002-.002 6.93-8.006 16.973-12.597 27.552-12.597 20.094 0 36.441 16.35 36.441 36.447 0 8.765-3.154 17.232-8.888 23.844-6.93 8.006-16.973 12.597-27.553 12.597-20.093-.002-36.44-16.349-36.44-36.442z"/><path d="m476.164 268.609c-17.946-18.09-41.733-28.381-66.978-28.975-26.592-.626-51.685 9.247-70.681 27.801-19.001 18.559-29.466 43.406-29.466 69.964 0 12.705 2.421 25.095 7.196 36.825 1.562 3.839 5.942 5.684 9.781 4.122 3.839-1.563 5.685-5.942 4.122-9.781-4.04-9.924-6.087-20.41-6.087-31.166 0-22.481 8.858-43.514 24.943-59.225 16.08-15.705 37.339-24.072 59.838-23.532 21.348.502 41.476 9.218 56.675 24.54 15.199 15.321 23.755 35.52 24.094 56.874.291 18.42-5.343 35.941-16.345 50.743l-40.815 56.279c-7.354 10.142-12.425 21.493-15.07 33.735l-3.055 14.137c-.757 3.5-3.904 6.038-7.484 6.038s-6.727-2.54-7.483-6.039l-3.056-14.136c-2.646-12.243-7.717-23.594-15.072-33.736l-35.264-48.625c-2.433-3.355-7.126-4.103-10.483-1.669-3.355 2.434-4.103 7.126-1.669 10.483l35.264 48.624c6.125 8.446 10.348 17.898 12.551 28.095l3.055 14.136c2.238 10.361 11.556 17.879 22.155 17.879s19.917-7.52 22.155-17.879l3.056-14.137c2.203-10.195 6.425-19.647 12.55-28.094l40.762-56.208c12.942-17.409 19.599-38.11 19.255-59.865-.398-25.252-10.5-49.12-28.444-67.208z"/><path d="m87.172 122.936c12.396 0 24.162-5.379 32.275-14.751 6.717-7.748 10.417-17.67 10.417-27.941 0-6.232-1.323-12.253-3.933-17.897-1.74-3.763-6.201-5.403-9.962-3.663-3.763 1.739-5.402 6.2-3.663 9.962 1.689 3.655 2.547 7.558 2.547 11.598 0 6.658-2.397 13.089-6.752 18.111-5.264 6.081-12.892 9.57-20.929 9.57-15.263 0-27.68-12.417-27.68-27.68 0-6.657 2.397-13.091 6.752-18.116 5.264-6.081 12.892-9.57 20.929-9.57 1.418 0 2.841.108 4.231.32 4.098.63 7.927-2.186 8.554-6.284.627-4.097-2.186-7.928-6.284-8.554-2.139-.327-4.326-.493-6.502-.493-12.396 0-24.162 5.379-32.277 14.754-6.716 7.752-10.415 17.676-10.415 27.943.001 23.539 19.152 42.691 42.692 42.691z"/><path d="m55.727 172.79c4.782 6.593 8.078 13.971 9.798 21.931l2.446 11.32c1.94 8.979 10.015 15.495 19.202 15.495s17.262-6.517 19.202-15.495l2.446-11.319c1.72-7.961 5.017-15.339 9.798-21.931l32.627-44.99c10.56-14.204 15.993-31.096 15.712-48.848-.326-20.606-8.568-40.083-23.209-54.841-14.644-14.76-34.053-23.156-54.655-23.642-21.696-.515-42.172 7.546-57.673 22.685-15.504 15.143-24.044 35.417-24.044 57.087 0 17.278 5.437 33.724 15.671 47.488zm-13.817-138.897c12.208-11.924 28.222-18.435 45.252-18.435.523 0 1.052.006 1.577.019 16.704.393 32.455 7.214 44.351 19.206s18.593 27.797 18.857 44.507c.228 14.416-4.181 28.128-12.801 39.726l-32.679 45.06c-6.01 8.288-10.155 17.565-12.318 27.573l-2.446 11.319c-.458 2.119-2.363 3.656-4.529 3.656s-4.072-1.537-4.529-3.655l-2.446-11.319c-2.163-10.007-6.307-19.284-12.319-27.573l-32.731-45.132c-8.346-11.227-12.758-24.576-12.758-38.603-.003-17.593 6.931-34.054 19.519-46.349z"/><path d="m431.367 85.964c-2.796 3.06-2.582 7.808.478 10.604 1.44 1.316 3.252 1.964 5.061 1.964 2.034 0 4.063-.823 5.543-2.443l.13-.14c.181-.195.361-.391.526-.583 5.689-6.561 8.822-14.964 8.822-23.661 0-19.936-16.218-36.156-36.152-36.156-10.412 0-20.323 4.496-27.191 12.336-2.731 3.118-2.418 7.86.7 10.591 3.118 2.732 7.86 2.419 10.592-.7 4.018-4.586 9.813-7.217 15.9-7.217 11.657 0 21.141 9.486 21.141 21.145 0 5.085-1.83 9.995-5.161 13.838z"/><path d="m359.234 40.398c3.366 2.419 8.057 1.649 10.475-1.717 10.956-15.253 28.693-24.113 47.438-23.654 14.617.344 28.4 6.314 38.812 16.808 10.411 10.495 16.272 24.327 16.503 38.948.199 12.615-3.659 24.616-11.209 34.775l-7.759 10.699c-2.434 3.355-1.686 8.048 1.669 10.482 1.331.966 2.872 1.43 4.399 1.43 2.323 0 4.614-1.076 6.082-3.1l7.707-10.628c9.489-12.765 14.372-27.944 14.119-43.896-.292-18.518-7.7-36.021-20.855-49.282-13.158-13.262-30.6-20.807-49.115-21.243-23.711-.552-46.132 10.62-59.983 29.904-.662.923-2.631 5.625.524 9.404.352.39.748.751 1.193 1.07z"/><path d="m346.96 449.464c.011-2.08-.829-4.153-2.503-5.645-3.094-2.759-7.839-2.487-10.597.607-4.767 5.346-9.736 10.246-14.786 14.592-10.592 3.664-21.424 6.454-32.455 8.382 8.37-18.011 15.55-42.776 21.035-72.762.747-4.077-1.955-7.987-6.032-8.733-4.072-.746-7.987 1.954-8.733 6.032-6.182 33.796-14.777 61.201-24.364 77.829-6.265.546-12.583.833-18.953.833-6.393 0-12.715-.299-18.966-.854-11.057-19.13-20.189-51.127-26.405-90.27 14.856 1.207 30.029 1.83 45.371 1.83 14.209 0 28.554-.538 42.635-1.599 4.133-.312 7.232-3.915 6.921-8.048-.312-4.134-3.923-7.225-8.048-6.921-13.707 1.033-27.672 1.557-41.508 1.557-16.138 0-32.062-.71-47.596-2.065-4.051-30.321-6.428-64.173-6.726-99.223h121.716c4.145 0 7.506-3.36 7.506-7.506 0-3.472-2.361-6.385-5.562-7.242-.272-34.658-2.489-67.888-6.336-97.911 25.051 2.937 48.864 7.602 70.619 13.799 4.618 16.645 7.992 34.114 9.963 51.925.425 3.84 3.676 6.68 7.451 6.68.275 0 .554-.015.835-.046 4.12-.456 7.09-4.166 6.634-8.286-1.696-15.326-4.392-30.423-7.991-45.013 20.396 6.928 38.547 15.305 53.665 24.942 3.771 12.608 6.388 25.617 7.765 38.882.4 3.86 3.659 6.731 7.456 6.731.259 0 .521-.013.785-.041 4.123-.428 7.118-4.117 6.691-8.24-5.791-55.786-31.958-107.35-73.678-145.191-42.018-38.11-96.424-59.099-153.196-59.099-23.161 0-46.016 3.462-67.929 10.289-3.958 1.233-6.167 5.441-4.934 9.399 1.233 3.957 5.438 6.163 9.399 4.934 8.662-2.699 17.485-4.828 26.42-6.394-9.952 21.444-18.161 52.328-23.818 89.377-8.549.937-17.011 2.05-25.337 3.384-4.093.656-6.879 4.506-6.223 8.599.656 4.094 4.506 6.875 8.599 6.223 6.853-1.099 13.794-2.056 20.807-2.877-1.2 9.368-2.245 19.07-3.12 29.063-.362 4.129 2.692 7.771 6.821 8.132.223.02.444.029.664.029 3.849 0 7.126-2.944 7.468-6.851.964-10.996 2.151-21.659 3.529-31.919 15.625-1.361 31.547-2.072 47.654-2.072 16.138 0 32.062.71 47.596 2.065 4.051 30.321 6.428 64.173 6.726 99.223h-108.634c.099-11.955.421-23.899.988-35.604.2-4.141-2.993-7.66-7.133-7.86-4.158-.189-7.66 2.994-7.86 7.133-.578 11.946-.906 24.133-1.005 36.33h-76.339c.049-2.179.116-4.413.207-6.745.162-4.142-3.064-7.631-7.206-7.794-4.123-.178-7.632 3.063-7.794 7.206-.099 2.535-.173 4.966-.224 7.332h-52.283c.691-19.861 4.114-39.423 10.219-58.254 1.278-3.943-.883-8.176-4.826-9.454-3.944-1.278-8.176.883-9.454 4.826-7.356 22.697-11.086 46.378-11.086 70.388 0 60.93 23.727 118.213 66.811 161.298 43.085 43.084 100.367 66.811 161.298 66.811 34.418 0 67.505-7.482 98.34-22.237 3.739-1.789 5.32-6.271 3.531-10.009-.93-1.937-2.586-3.289-4.485-3.897zm-36.535-312.449c-5.601-36.712-13.749-67.726-23.794-89.367 11.073 1.947 21.94 4.764 32.511 8.411 18.721 16.132 35.284 38.92 47.945 66.028 4.032 8.633 7.667 17.72 10.887 27.15-21.111-5.477-43.837-9.605-67.549-12.222zm135.487 37.536c-15.004-7.831-32.026-14.679-50.591-20.41-4.108-13.451-8.999-26.343-14.633-38.406-7.538-16.139-16.423-30.871-26.313-43.794 13.644 7.716 26.503 16.964 38.307 27.671 23.219 21.059 41.278 46.664 53.23 74.939zm-196.34-40.853c-15.322 0-30.493.618-45.411 1.819 6.308-39.423 15.597-71.451 26.462-90.273 6.282-.553 12.602-.84 18.949-.84 6.358 0 12.683.289 18.962.847 11.059 19.131 20.193 51.133 26.41 90.283-14.857-1.206-30.028-1.836-45.372-1.836zm-37.054 333.671c-11.169-1.966-22.038-4.811-32.54-8.449-25.44-21.917-45.641-54.525-58.828-93.145 21.115 5.477 43.854 9.598 67.569 12.215 5.602 36.719 13.753 67.736 23.799 89.379zm-25.948-104.713c-25.066-2.938-48.891-7.607-70.656-13.809-7.232-26.126-11.401-54.497-12.01-83.839h76.333c.282 34.563 2.497 67.701 6.333 97.648zm-149.949-97.648h52.272c.547 27.256 4.062 53.766 10.188 78.596-20.385-6.922-38.527-15.293-53.643-24.921-5.131-17.096-8.17-35.085-8.817-53.675zm16.679 75.484c14.992 7.818 32.009 14.648 50.553 20.37 9.562 31.269 23.412 59.299 40.752 82.034-40.597-23.074-72.921-59.089-91.305-102.404z"/></g></g></svg>