<?xml version="1.0" encoding="iso-8859-1"?>
<!-- Generator: Adobe Illustrator 19.0.0, SVG Export Plug-In . SVG Version: 6.00 Build 0)  -->
<svg version="1.1" id="Capa_1" xmlns="http://www.w3.org/2000/svg" xmlns:xlink="http://www.w3.org/1999/xlink" x="0px" y="0px"
	 viewBox="0 0 377.6 377.6" style="enable-background:new 0 0 377.6 377.6;" xml:space="preserve">
<polygon style="fill:#E5C439;" points="6.8,59.8 188.8,24.2 370.8,59.8 370.8,320.2 188.8,353.8 6.8,320.2 "/>
<polygon style="fill:#CE9F36;" points="4.8,139 188.8,103.8 373.2,139 373.2,59.8 189.2,27 4.8,59 "/>
<path style="fill:#562B00;" d="M0,137.4v182.8c0,2.8,1.6,5.2,4.4,6.4l182,33.2c0.8,0.4,1.6,0.4,2.4,0.4s1.6,0,2.4-0.4l182-33.2
	c2.4-1.2,4.4-3.6,4.4-6.4V137.4l0,0V59.8c0-2.8-1.6-5.2-4.4-6.4l-182-35.6c-0.8-0.4-1.6-0.4-2.4-0.4l0,0l0,0c-0.8,0-1.6,0-2.4,0.4
	L4.4,53.4C2,54.6,0,57,0,59.8L0,137.4C0,137.4,0,137.4,0,137.4z M13.2,143L182,110.6v234.8L13.2,315.8C13.2,315.8,13.2,143,13.2,143
	z M195.6,345.4V110.6L364.4,143v172.8L195.6,345.4z M364.4,129.4L195.6,96.6V33l168.8,31.6L364.4,129.4L364.4,129.4z M182,33v63.6
	L13.2,129.4V64.2L182,33z"/>
<g>
</g>
<g>
</g>
<g>
</g>
<g>
</g>
<g>
</g>
<g>
</g>
<g>
</g>
<g>
</g>
<g>
</g>
<g>
</g>
<g>
</g>
<g>
</g>
<g>
</g>
<g>
</g>
<g>
</g>
</svg>
