<svg id="Capa_1" enable-background="new 0 0 512 512" height="512" viewBox="0 0 512 512" width="512" xmlns="http://www.w3.org/2000/svg"><g id="XMLID_2012_"><path id="XMLID_1673_" d="m70 502c-11.046 0-20-8.954-20-20v-20h40v20c0 11.046-8.954 20-20 20z" fill="#8690af"/><path id="XMLID_1672_" d="m222 502c11.046 0 20-8.954 20-20v-20h-40v20c0 11.046 8.954 20 20 20z" fill="#8690af"/><path id="XMLID_1595_" d="m186 10h-80c-11.046 0-20 8.954-20 20v20h120v-20c0-11.046-8.954-20-20-20z" fill="#adeefa"/><path id="XMLID_1300_" d="m242 462h-192c-22.091 0-40-17.909-40-40v-240c0-22.091 17.909-40 40-40h192c22.091 0 40 17.909 40 40v240c0 22.091-17.909 40-40 40z" fill="#adeefa"/><path id="XMLID_1510_" d="m242 482.388v-160.776c0-10.832 8.78-19.612 19.612-19.612h220.777c10.831 0 19.611 8.78 19.611 19.612v160.777c0 10.831-8.78 19.611-19.612 19.611h-220.776c-10.832 0-19.612-8.78-19.612-19.612z" fill="#fff"/><path id="XMLID_1299_" d="m242 453.25v-102.5c26.924 0 48.75-21.826 48.75-48.75h162.5c0 26.924 21.826 48.75 48.75 48.75v102.5c-26.924 0-48.75 21.826-48.75 48.75h-162.5c0-26.924-21.826-48.75-48.75-48.75z" fill="#c68a65"/><circle id="XMLID_1530_" cx="94.667" cy="278" fill="#fff" r="30.667"/><path id="XMLID_1529_" d="m110.98 390.156 26.738-46.312c3.681-6.375 12.882-6.375 16.563 0l26.738 46.312c3.681 6.375-.92 14.344-8.281 14.344h-53.477c-7.361 0-11.962-7.969-8.281-14.344z" fill="#e67d97"/><path id="XMLID_1528_" d="m177 206.139h54.667v54.667h-54.667z" fill="#f2cd69"/><g id="XMLID_459_"><g id="XMLID_617_"><path id="XMLID_620_" d="m482.388 292h-54.388v-18c0-16.542-13.458-30-30-30h-52c-16.542 0-30 13.458-30 30v18h-24v-110c0-27.57-22.43-50-50-50h-26v-102c0-16.542-13.458-30-30-30h-80c-16.542 0-30 13.458-30 30v102h-26c-27.57 0-50 22.43-50 50v75c0 5.523 4.477 10 10 10s10-4.477 10-10v-75c0-16.542 13.458-30 30-30h192c16.542 0 30 13.458 30 30v110h-10.388c-16.328 0-29.612 13.284-29.612 29.612v130.388h-182c-16.542 0-30-13.458-30-30v-75c0-5.523-4.477-10-10-10s-10 4.477-10 10v75c0 24.147 17.205 44.348 40 48.994v11.006c0 16.542 13.458 30 30 30s30-13.458 30-30v-10h92v10c0 16.542 13.458 30 30 30 7.62 0 14.581-2.861 19.878-7.558 5.242 4.695 12.159 7.558 19.734 7.558h220.776c16.328 0 29.612-13.284 29.612-29.612v-160.776c0-16.328-13.284-29.612-29.612-29.612zm-376.388-272h80c5.514 0 10 4.486 10 10v10h-100v-10c0-5.514 4.486-10 10-10zm-10 112v-72h100v72zm396 189.612v17.823c-13.342-3.568-23.867-14.092-27.435-27.435h17.823c5.3 0 9.612 4.312 9.612 9.612zm0 122.49c-19.815 3.413-36.268 16.786-44 34.76v-153.724c7.732 17.974 24.185 31.348 44 34.76zm-240-84.204c19.815-3.413 36.268-16.786 44-34.76v153.724c-7.732-17.974-24.185-31.348-44-34.76zm64-47.898h112v180h-112zm20-38c0-5.514 4.486-10 10-10h52c5.514 0 10 4.486 10 10v18h-72zm-74.388 38h17.823c-3.568 13.342-14.092 23.867-27.435 27.435v-17.823c0-5.3 4.312-9.612 9.612-9.612zm-181.612 170c0 5.514-4.486 10-10 10s-10-4.486-10-10v-10h20zm142 10c-5.514 0-10-4.486-10-10v-10h20v10c0 5.514-4.486 10-10 10zm30-9.612v-.388-17.435c13.342 3.568 23.867 14.092 27.435 27.435h-17.823c-5.3 0-9.612-4.312-9.612-9.612zm230.388 9.612h-17.823c3.568-13.342 14.092-23.867 27.435-27.435v17.823c0 5.3-4.312 9.612-9.612 9.612z"/><path id="XMLID_1623_" d="m94.666 237.333c-22.423 0-40.666 18.243-40.666 40.667s18.243 40.667 40.666 40.667c22.424 0 40.667-18.243 40.667-40.667s-18.243-40.667-40.667-40.667zm0 61.334c-11.395 0-20.666-9.271-20.666-20.667s9.271-20.667 20.666-20.667c11.396 0 20.667 9.271 20.667 20.667s-9.271 20.667-20.667 20.667z"/><path id="XMLID_1628_" d="m146 329.062c-7.072 0-13.405 3.657-16.941 9.781l-26.739 46.312c-3.536 6.124-3.536 13.438 0 19.562 3.536 6.125 9.87 9.782 16.942 9.782h53.477c7.072 0 13.406-3.657 16.942-9.782 3.536-6.124 3.536-13.438 0-19.562l-26.739-46.312c-3.537-6.124-9.87-9.781-16.942-9.781zm-25.981 65.438 25.981-45 25.981 45z"/><path id="XMLID_1706_" d="m231.667 270.805c5.523 0 10-4.477 10-10v-54.667c0-5.523-4.477-10-10-10h-54.667c-5.523 0-10 4.477-10 10v54.667c0 5.523 4.477 10 10 10zm-44.667-54.666h34.667v34.667h-34.667z"/><path id="XMLID_1711_" d="m10 312c2.63 0 5.21-1.07 7.07-2.93s2.93-4.44 2.93-7.07-1.07-5.21-2.93-7.07-4.44-2.93-7.07-2.93-5.21 1.07-7.07 2.93-2.93 4.44-2.93 7.07 1.07 5.21 2.93 7.07 4.44 2.93 7.07 2.93z"/></g></g></g></svg>