<svg width="40" height="40" viewBox="0 0 40 40" fill="none" xmlns="http://www.w3.org/2000/svg">
<path d="M32.5 35H25.9375C25.4219 35 25 34.5781 25 34.0625V30.9375C25 30.4219 25.4219 30 25.9375 30H32.5C33.8828 30 35 28.8828 35 27.5V12.5C35 11.1172 33.8828 10 32.5 10H25.9375C25.4219 10 25 9.57812 25 9.0625V5.9375C25 5.42188 25.4219 5 25.9375 5H32.5C36.6406 5 40 8.35938 40 12.5V27.5C40 31.6406 36.6406 35 32.5 35ZM28.8281 19.2969L15.7031 6.17188C14.5312 5 12.5 5.82031 12.5 7.5V15H1.875C0.835938 15 0 15.8359 0 16.875V24.375C0 25.4141 0.835938 26.25 1.875 26.25H12.5V33.75C12.5 35.4297 14.5312 36.25 15.7031 35.0781L28.8281 21.9531C29.5547 21.2188 29.5547 20.0312 28.8281 19.2969Z" fill="#858484"/>
</svg>
