<svg width="90%" height="90%" viewBox="0 0 682 535" fill="none" xmlns="http://www.w3.org/2000/svg">
<g clip-path="url(#clip0)">
<path d="M578.849 535C635.818 535 682 527.199 682 517.576C682 507.952 635.818 500.151 578.849 500.151C521.88 500.151 475.698 507.952 475.698 517.576C475.698 527.199 521.88 535 578.849 535Z" fill="#3F3D56"/>
<path d="M666.095 453.424C665.892 490.858 644.077 503.804 617.256 503.652C616.633 503.649 616.014 503.638 615.397 503.62C614.154 503.586 612.924 503.521 611.707 503.426C587.51 501.534 568.776 487.687 568.965 452.873C569.159 416.845 614.397 371.632 617.789 368.29C617.792 368.29 617.792 368.29 617.795 368.287C617.924 368.159 617.99 368.096 617.99 368.096C617.99 368.096 666.297 415.992 666.095 453.424Z" fill="#6C63FF"/>
<path d="M615.52 497.916L633.419 472.617L615.46 500.704L615.397 503.62C614.154 503.586 612.924 503.521 611.707 503.425L613.824 465.986L613.81 465.696L613.843 465.642L614.044 462.104L596.346 433.744L614.112 459.453L614.153 460.204L615.752 431.917L600.627 402.63L615.966 426.946L617.789 368.29L617.796 368.095L617.795 368.287L617.294 414.549L632.604 396.294L617.207 418.533L616.668 443.866L631.008 419.633L616.591 447.591L616.291 461.677L637.095 427.95L616.184 466.591L615.52 497.916Z" fill="#3F3D56"/>
<path d="M569.137 168.788C587.093 168.788 601.648 153.891 601.648 135.514C601.648 117.138 587.093 102.241 569.137 102.241C551.182 102.241 536.626 117.138 536.626 135.514C536.626 153.891 551.182 168.788 569.137 168.788Z" fill="#2F2E41"/>
<path d="M564.298 169.734C576.491 169.734 586.376 159.618 586.376 147.138C586.376 134.659 576.491 124.543 564.298 124.543C552.105 124.543 542.221 134.659 542.221 147.138C542.221 159.618 552.105 169.734 564.298 169.734Z" fill="#FFB8B8"/>
<path d="M551.171 159.352C551.171 159.352 560.718 181.948 555.944 184.39C551.171 186.833 548.784 197.826 548.784 197.826L561.315 224.696L578.619 235.688H588.762C588.762 235.688 598.906 189.276 595.326 183.78C591.746 178.284 578.619 175.23 578.619 175.23C578.619 175.23 575.635 167.902 576.829 161.184C578.022 154.467 551.171 159.352 551.171 159.352Z" fill="#FFB8B8"/>
<path d="M536.85 223.474L521.337 210.65C521.337 210.65 493.292 190.497 496.872 205.154C500.452 219.81 516.563 221.032 516.563 221.032L543.414 243.016L536.85 223.474Z" fill="#FFB8B8"/>
<path d="M535.657 290.65C535.657 290.65 528.497 321.185 535.657 362.711L538.641 379.2C538.641 379.2 538.641 392.025 541.624 396.91C541.624 396.91 549.381 469.582 553.558 469.582C557.735 469.582 570.862 467.139 572.055 465.307C573.248 463.475 548.784 287.597 548.784 287.597L535.657 290.65Z" fill="#2F2E41"/>
<path opacity="0.1" d="M535.657 290.65C535.657 290.65 528.497 321.185 535.657 362.711L538.641 379.2C538.641 379.2 538.641 392.025 541.624 396.91C541.624 396.91 549.381 469.582 553.558 469.582C557.735 469.582 570.862 467.139 572.055 465.307C573.248 463.475 548.784 287.597 548.784 287.597L535.657 290.65Z" fill="black"/>
<path d="M555.253 464.705L546.01 499.762C546.01 499.762 527.523 510.892 538.941 513.118C550.359 515.344 561.778 510.892 561.778 510.892L567.215 494.754L572.652 491.415V508.666H574.283L578.089 485.851C578.089 485.851 577.545 474.165 574.283 473.052C571.021 471.939 569.39 465.818 569.39 465.818L555.253 464.705Z" fill="#2F2E41"/>
<path opacity="0.1" d="M555.253 464.705L546.01 499.762C546.01 499.762 527.523 510.892 538.941 513.118C550.359 515.344 561.778 510.892 561.778 510.892L567.215 494.754L572.652 491.415V508.666H574.283L578.089 485.851C578.089 485.851 577.545 474.165 574.283 473.052C571.021 471.939 569.39 465.818 569.39 465.818L555.253 464.705Z" fill="black"/>
<path d="M533.27 289.429C533.27 289.429 538.044 307.749 539.834 310.803C539.834 310.803 542.221 362.711 549.978 380.421L558.331 403.017C558.331 403.017 572.055 469.582 568.475 476.91C568.475 476.91 586.972 481.185 588.166 476.91C588.166 476.91 587.569 441.49 589.359 436.605C591.149 431.719 594.133 404.849 579.812 385.307V326.07C579.812 326.07 602.486 306.528 589.359 281.49C576.232 256.452 533.27 289.429 533.27 289.429Z" fill="#2F2E41"/>
<path d="M570.265 473.246L560.121 511.719C560.121 511.719 539.834 523.933 552.364 526.376C564.895 528.819 577.425 523.933 577.425 523.933L583.392 506.223L589.359 502.559V521.49H591.149L595.326 496.452C595.326 496.452 594.729 483.628 591.149 482.406C587.569 481.185 585.779 474.467 585.779 474.467L570.265 473.246Z" fill="#2F2E41"/>
<path d="M557.243 179.83C557.243 179.83 542.221 188.665 542.221 189.276C542.221 189.887 544.011 199.658 544.011 199.658C544.011 199.658 525.513 218.589 538.044 235.078C538.044 235.078 542.221 238.131 542.221 247.902V257.673C542.221 257.673 507.016 280.268 515.966 287.597C524.917 294.925 534.464 293.704 537.447 297.978C540.431 302.253 557.735 294.314 561.315 293.093C564.895 291.872 565.492 290.65 568.475 294.925C571.458 299.2 588.166 291.872 588.166 291.872C588.166 291.872 598.906 288.818 601.293 288.818C602.767 288.8 604.209 288.378 605.47 287.597L579.812 260.726L592.641 227.444C592.641 227.444 554.751 203.322 554.751 196.604C554.751 189.887 557.243 179.83 557.243 179.83Z" fill="#3F3D56"/>
<path d="M580.409 181.337C580.409 181.337 572.652 192.329 578.619 207.597C584.586 222.864 594.133 240.574 594.133 240.574L579.215 245.459H565.492C565.492 245.459 536.85 240.574 539.834 251.566C542.817 262.559 563.105 257.673 563.105 257.673H575.039C575.039 257.673 601.89 260.726 605.47 255.841C605.47 255.841 615.017 255.23 610.84 235.688C606.663 216.146 594.468 182.695 594.468 182.695L580.409 181.337Z" fill="#FFB8B8"/>
<path d="M560.005 137.01C571.504 137.01 580.827 132.156 580.827 126.168C580.827 120.18 571.504 115.326 560.005 115.326C548.505 115.326 539.183 120.18 539.183 126.168C539.183 132.156 548.505 137.01 560.005 137.01Z" fill="#2F2E41"/>
<path d="M586.077 152.329C587.725 152.329 589.061 149.322 589.061 145.612C589.061 141.902 587.725 138.894 586.077 138.894C584.43 138.894 583.094 141.902 583.094 145.612C583.094 149.322 584.43 152.329 586.077 152.329Z" fill="#FFB8B8"/>
<path d="M583.691 124.238C593.577 124.238 601.591 116.035 601.591 105.917C601.591 95.7987 593.577 87.5963 583.691 87.5963C573.804 87.5963 565.79 95.7987 565.79 105.917C565.79 116.035 573.804 124.238 583.691 124.238Z" fill="#2F2E41"/>
<path opacity="0.3" d="M202.297 189.245C242.857 189.245 275.738 155.593 275.738 114.081C275.738 72.5694 242.857 38.9173 202.297 38.9173C161.736 38.9173 128.856 72.5694 128.856 114.081C128.856 155.593 161.736 189.245 202.297 189.245Z" fill="#6C63FF"/>
<path opacity="0.3" d="M60.0881 367.589C84.0556 367.589 103.485 347.704 103.485 323.174C103.485 298.644 84.0556 278.759 60.0881 278.759C36.1206 278.759 16.6912 298.644 16.6912 323.174C16.6912 347.704 36.1206 367.589 60.0881 367.589Z" fill="#6C63FF"/>
<path opacity="0.3" d="M338.496 414.054C387.538 414.054 427.293 373.366 427.293 323.174C427.293 272.982 387.538 232.294 338.496 232.294C289.455 232.294 249.699 272.982 249.699 323.174C249.699 373.366 289.455 414.054 338.496 414.054Z" fill="#6C63FF"/>
<path d="M44.1513 176.319L42.8454 176.034C43.1251 174.691 43.4166 173.353 43.72 172.02L45.0208 172.329C44.7192 173.655 44.4294 174.985 44.1513 176.319Z" fill="#6C63FF"/>
<path d="M464.606 165.028C463.921 162.424 463.178 159.795 462.398 157.213L463.673 156.81C464.458 159.407 465.206 162.053 465.895 164.673L464.606 165.028ZM46.9686 164.431L45.6803 164.072C46.3792 161.444 47.1368 158.791 47.9323 156.186L49.2069 156.594C48.416 159.183 47.6633 161.819 46.9686 164.431V164.431ZM459.913 149.5C459.039 146.949 458.11 144.386 457.15 141.884L458.393 141.385C459.358 143.902 460.294 146.481 461.173 149.049L459.913 149.5ZM51.7275 148.85L50.4685 148.394C51.3578 145.823 52.3055 143.236 53.2855 140.705L54.5269 141.208C53.5528 143.724 52.611 146.295 51.7275 148.85ZM454.112 134.375C453.061 131.905 451.949 129.418 450.807 126.984L452.01 126.392C453.16 128.842 454.279 131.344 455.337 133.829L454.112 134.375ZM57.6004 133.68L56.3779 133.13C57.4498 130.636 58.5813 128.129 59.7419 125.679L60.9435 126.275C59.7901 128.71 58.6654 131.201 57.6004 133.68ZM447.235 119.721C446.004 117.329 444.715 114.931 443.403 112.596L444.561 111.915C445.88 114.265 447.178 116.677 448.416 119.084L447.235 119.721ZM64.552 119.004L63.3725 118.363C64.6221 115.956 65.9313 113.542 67.264 111.19L68.4193 111.875C67.0948 114.213 65.7934 116.612 64.552 119.004ZM439.318 105.618C437.922 103.329 436.463 101.034 434.985 98.7969L436.091 98.0309C437.579 100.282 439.046 102.591 440.451 104.894L439.318 105.618ZM72.5393 104.898L71.4094 104.17C72.8258 101.868 74.3042 99.5603 75.8038 97.3115L76.907 98.0816C75.4166 100.317 73.947 102.61 72.5393 104.898H72.5393ZM430.407 92.1423C428.857 89.9723 427.238 87.7919 425.595 85.6622L426.644 84.8154C428.297 86.9585 429.925 89.1522 431.486 91.3356L430.407 92.1423ZM81.516 91.4357L80.4415 90.6243C82.0216 88.4319 83.6611 86.2425 85.3145 84.1168L86.359 84.9676C84.716 87.0806 83.0867 89.2567 81.516 91.4357H81.516ZM420.553 79.3657C418.843 77.3081 417.072 75.2541 415.289 73.2609L416.274 72.3381C418.068 74.3433 419.85 76.4099 421.57 78.4802L420.553 79.3657ZM91.43 78.6864L90.4161 77.7969C92.1446 75.7339 93.9356 73.6736 95.7397 71.6734L96.7209 72.6003C94.9279 74.5885 93.1476 76.6361 91.43 78.6864ZM409.809 67.3564C407.953 65.4282 406.039 63.5117 404.121 61.66L405.038 60.6657C406.967 62.5291 408.892 64.4573 410.76 66.3975L409.809 67.3564ZM102.225 66.7174L101.278 65.7545C103.153 63.822 105.086 61.9019 107.022 60.0475L107.935 61.0454C106.01 62.8885 104.089 64.797 102.225 66.7174ZM398.232 56.1795C396.245 54.3968 394.199 52.6278 392.151 50.9219L392.994 49.8622C395.055 51.5785 397.113 53.3582 399.112 55.1519L398.232 56.1795ZM113.842 55.591L112.966 54.5597C114.973 52.7743 117.037 51.0043 119.101 49.2987L119.94 50.3624C117.888 52.0573 115.837 53.8166 113.842 55.591ZM385.884 45.8952C383.78 44.269 381.612 42.6578 379.442 41.1064L380.206 39.986C382.39 41.5471 384.571 43.1683 386.689 44.8042L385.884 45.8952ZM126.219 45.3663L125.419 44.272C127.549 42.6411 129.733 41.0309 131.912 39.4861L132.672 40.6098C130.507 42.1447 128.336 43.7452 126.219 45.3663ZM372.831 36.562C370.61 35.0957 368.331 33.651 366.059 32.269L366.741 31.0939C369.027 32.4849 371.32 33.9382 373.554 35.4136L372.831 36.562ZM139.29 36.0996L138.57 34.9486C140.807 33.4836 143.1 32.0422 145.385 30.6642L146.063 31.842C143.792 33.2112 141.513 34.6439 139.29 36.0996V36.0996ZM359.135 28.2336C356.82 26.9403 354.443 25.6712 352.071 24.4613L352.667 23.2382C355.053 24.4557 357.445 25.7326 359.775 27.0338L359.135 28.2336ZM152.983 27.8425L152.348 26.6401C154.683 25.3489 157.072 24.0843 159.45 22.8822L160.041 24.1074C157.678 25.3021 155.303 26.559 152.983 27.8425ZM344.873 20.9577C342.469 19.8427 340.006 18.757 337.553 17.73L338.058 16.4648C340.527 17.4981 343.006 18.5912 345.424 19.7132L344.873 20.9577ZM167.228 20.6424L166.681 19.3959C169.097 18.2862 171.57 17.2059 174.03 16.1856L174.532 17.4521C172.086 18.4664 169.629 19.5397 167.228 20.6424ZM330.118 14.7812C327.63 13.8487 325.094 12.9522 322.579 12.1164L322.992 10.8165C325.522 11.6577 328.074 12.5598 330.577 13.498L330.118 14.7812ZM181.944 14.5404L181.489 13.2558C183.982 12.3299 186.524 11.4404 189.045 10.6113L189.454 11.9125C186.949 12.7363 184.422 13.6205 181.944 14.5404ZM314.947 9.7395C312.405 9.00016 309.817 8.30046 307.254 7.65921L307.571 6.33196C310.149 6.9769 312.754 7.68123 315.313 8.42494L314.947 9.7395ZM197.073 9.56501L196.712 8.24909C199.267 7.51474 201.874 6.81841 204.459 6.17949L204.773 7.50807C202.203 8.143 199.613 8.83499 197.073 9.56501ZM299.491 5.8722C296.905 5.32835 294.273 4.82655 291.669 4.38046L291.889 3.03253C294.51 3.48128 297.158 3.98642 299.76 4.5336L299.491 5.8722ZM212.54 5.74374L212.276 4.40445C214.882 3.86427 217.532 3.36714 220.151 2.92672L220.367 4.27533C217.765 4.71277 215.131 5.20691 212.54 5.74374V5.74374ZM283.798 3.18433C281.174 2.83634 278.513 2.53438 275.889 2.28581L276.012 0.925201C278.652 1.17511 281.329 1.47906 283.969 1.82905L283.798 3.18433ZM228.242 3.10325L228.074 1.74731C230.705 1.40599 233.383 1.10971 236.033 0.866485L236.152 2.22776C233.518 2.46933 230.857 2.76394 228.242 3.10326V3.10325ZM267.953 1.68391C265.322 1.53344 262.647 1.43068 260.002 1.3783L260.028 0.011678C262.689 0.0647302 265.38 0.168154 268.028 0.319296L267.953 1.68391ZM244.09 1.64887L244.019 0.284242C246.671 0.140446 249.363 0.0450217 252.021 -1.52588e-05L252.043 1.3666C249.401 1.411 246.725 1.50609 244.09 1.64887Z" fill="#6C63FF"/>
<path d="M467.422 177.076C467.148 175.741 466.863 174.41 466.566 173.084L467.868 172.779C468.167 174.113 468.454 175.452 468.728 176.796L467.422 177.076Z" fill="#6C63FF"/>
<path d="M469.222 266.18L467.912 265.916C468.17 264.581 468.416 263.242 468.65 261.899L469.964 262.138C469.729 263.49 469.482 264.838 469.222 266.18Z" fill="#6C63FF"/>
<path d="M255.709 445.486C254.257 445.486 252.809 445.472 251.365 445.443L251.391 444.076C254.031 444.129 256.689 444.132 259.331 444.089L259.353 445.456C258.14 445.476 256.926 445.486 255.709 445.486ZM267.336 445.175L267.266 443.81C269.906 443.667 272.571 443.474 275.184 443.235L275.302 444.596C272.673 444.837 269.993 445.031 267.336 445.175ZM243.384 445.135C240.734 444.984 238.054 444.781 235.42 444.532L235.542 443.171C238.161 443.419 240.824 443.621 243.459 443.771L243.384 445.135ZM283.243 443.721L283.076 442.366C285.704 442.025 288.347 441.633 290.932 441.199L291.148 442.548C288.547 442.984 285.888 443.378 283.243 443.721V443.721ZM227.481 443.631C224.843 443.28 222.184 442.877 219.58 442.432L219.8 441.084C222.389 441.526 225.03 441.927 227.652 442.275L227.481 443.631ZM299.005 441.08L298.741 439.74C301.332 439.205 303.939 438.614 306.491 437.985L306.804 439.315C304.236 439.947 301.612 440.54 299.005 441.08ZM211.728 440.936C209.123 440.389 206.501 439.786 203.934 439.145L204.251 437.817C206.802 438.454 209.408 439.054 211.996 439.598L211.728 440.936ZM314.534 437.255L314.174 435.939C316.707 435.213 319.265 434.428 321.777 433.604L322.185 434.905C319.657 435.735 317.083 436.525 314.534 437.255V437.255ZM196.211 437.061C193.658 436.32 191.08 435.519 188.547 434.679L188.959 433.379C191.476 434.214 194.038 435.011 196.575 435.747L196.211 437.061ZM329.725 432.275L329.271 430.99C331.738 430.077 334.227 429.102 336.667 428.093L337.167 429.361C334.711 430.376 332.207 431.356 329.725 432.275L329.725 432.275ZM180.978 432.009C178.482 431.076 175.97 430.081 173.512 429.054L174.017 427.788C176.46 428.809 178.956 429.798 181.436 430.725L180.978 432.009ZM344.501 426.168L343.955 424.92C346.359 423.819 348.772 422.66 351.128 421.472L351.717 422.698C349.347 423.893 346.919 425.06 344.501 426.168L344.501 426.168ZM166.16 425.819C163.74 424.7 161.308 423.519 158.932 422.31L159.526 421.086C161.888 422.288 164.305 423.462 166.71 424.574L166.16 425.819ZM358.807 418.958L358.174 417.756C360.495 416.476 362.819 415.137 365.082 413.777L365.759 414.955C363.481 416.324 361.142 417.671 358.807 418.958H358.807ZM151.836 418.53C149.503 417.231 147.164 415.871 144.882 414.487L145.563 413.311C147.831 414.687 150.156 416.039 152.474 417.329L151.836 418.53ZM372.564 410.691L371.847 409.539C374.058 408.097 376.28 406.586 378.454 405.05L379.213 406.175C377.025 407.72 374.788 409.24 372.564 410.691H372.564ZM138.081 410.185C135.851 408.716 133.616 407.185 131.438 405.632L132.202 404.511C134.366 406.054 136.587 407.576 138.803 409.036L138.081 410.185ZM385.697 401.412L384.899 400.317C387.005 398.709 389.116 397.036 391.171 395.345L392.008 396.41C389.94 398.112 387.817 399.795 385.697 401.412L385.697 401.412ZM124.965 400.834C122.85 399.206 120.732 397.512 118.668 395.798L119.509 394.737C121.56 396.44 123.666 398.124 125.768 399.743L124.965 400.834ZM398.137 391.173L397.263 390.14C399.253 388.375 401.239 386.549 403.167 384.711L404.077 385.71C402.138 387.56 400.14 389.398 398.137 391.173L398.137 391.173ZM112.556 390.529C110.557 388.742 108.566 386.894 106.637 385.038L107.552 384.043C109.469 385.887 111.448 387.723 113.435 389.5L112.556 390.529ZM409.82 380.029L408.875 379.064C410.741 377.149 412.592 375.178 414.377 373.208L415.356 374.137C413.56 376.12 411.697 378.102 409.82 380.029ZM100.919 379.33C99.0587 377.404 97.2047 375.414 95.4084 373.414L96.3917 372.489C98.1768 374.477 100.019 376.455 101.869 378.369L100.919 379.33ZM420.68 368.04L419.668 367.148C421.391 365.101 423.098 362.997 424.741 360.894L425.784 361.748C424.13 363.863 422.413 365.98 420.68 368.04ZM90.1136 367.296C88.3946 365.235 86.688 363.112 85.041 360.986L86.0875 360.137C87.7243 362.25 89.4205 364.36 91.1294 366.409L90.1136 367.296ZM430.661 355.267L429.588 354.453C431.164 352.277 432.716 350.05 434.202 347.835L435.302 348.607C433.809 350.837 432.247 353.077 430.661 355.267ZM80.198 354.492C78.629 352.307 77.0788 350.063 75.5903 347.823L76.6948 347.054C78.1739 349.281 79.7145 351.511 81.2738 353.683L80.198 354.492ZM439.704 341.776L438.576 341.045C439.985 338.77 441.374 336.432 442.704 334.096L443.858 334.785C442.519 337.135 441.121 339.487 439.704 341.776ZM71.2255 340.986C69.8185 338.692 68.4333 336.339 67.1091 333.993L68.2651 333.31C69.5815 335.641 70.9582 337.979 72.3568 340.26L71.2255 340.986ZM447.759 327.64L446.582 326.995C447.83 324.605 449.048 322.168 450.201 319.752L451.401 320.351C450.241 322.783 449.016 325.235 447.759 327.64ZM63.2467 326.85C62.0076 324.456 60.7955 322.006 59.6444 319.57L60.8467 318.975C61.9907 321.396 63.1952 323.831 64.4269 326.211L63.2467 326.85ZM454.778 312.929L453.558 312.375C454.626 309.91 455.665 307.385 456.646 304.874L457.886 305.381C456.898 307.908 455.853 310.448 454.778 312.929V312.929ZM56.3069 312.159C55.2425 309.677 54.2104 307.144 53.2389 304.631L54.4806 304.128C55.4459 306.626 56.4718 309.144 57.5293 311.61L56.3069 312.159ZM460.719 297.719L459.462 297.258C460.352 294.71 461.206 292.113 462.002 289.54L463.274 289.952C462.475 292.541 461.615 295.154 460.719 297.719ZM50.4457 296.994C49.5623 294.436 48.7134 291.827 47.9231 289.237L49.1978 288.83C49.9831 291.403 50.8265 293.997 51.7047 296.539L50.4457 296.994ZM465.546 282.092L464.259 281.728C464.958 279.137 465.62 276.49 466.228 273.858L467.528 274.173C466.916 276.82 466.249 279.485 465.546 282.092ZM45.6825 281.391C44.9875 278.777 44.3303 276.114 43.7292 273.474L45.0299 273.164C45.6271 275.788 46.2801 278.435 46.9709 281.032L45.6825 281.391Z" fill="#6C63FF"/>
<path d="M42.0327 265.334C41.7784 263.99 41.5358 262.641 41.305 261.289L42.6208 261.054C42.8496 262.398 43.0906 263.738 43.3438 265.073L42.0327 265.334Z" fill="#6C63FF"/>
<path d="M364.711 266.805L363.47 266.303C363.954 265.049 364.425 263.765 364.87 262.487L366.128 262.945C365.678 264.239 365.201 265.537 364.711 266.805Z" fill="#6C63FF"/>
<path d="M255.708 342.648C254.109 342.648 252.495 342.615 250.911 342.55L250.965 341.184C253.593 341.293 256.279 341.312 258.915 341.237L258.952 342.604C257.874 342.634 256.793 342.649 255.708 342.648ZM266.977 342.101L266.85 340.741C269.48 340.484 272.132 340.131 274.733 339.691L274.951 341.039C272.32 341.485 269.637 341.842 266.977 342.101ZM242.892 341.939C240.236 341.643 237.559 341.25 234.933 340.769L235.169 339.423C237.764 339.898 240.411 340.288 243.037 340.58L242.892 341.939ZM282.835 339.418L282.527 338.089C285.097 337.464 287.677 336.742 290.193 335.939L290.59 337.245C288.044 338.055 285.435 338.787 282.835 339.418V339.418ZM227.071 339.04C224.478 338.374 221.877 337.606 219.341 336.76L219.755 335.46C222.262 336.297 224.833 337.056 227.396 337.715L227.071 339.04ZM298.181 334.527L297.696 333.254C300.154 332.275 302.611 331.194 305.001 330.043L305.57 331.279C303.152 332.444 300.666 333.537 298.181 334.527V334.527ZM211.785 333.938C209.308 332.912 206.836 331.785 204.437 330.588L205.023 329.36C207.394 330.543 209.837 331.657 212.286 332.671L211.785 333.938ZM312.723 327.519L312.072 326.326C314.379 325.007 316.668 323.592 318.877 322.118L319.606 323.263C317.372 324.754 315.056 326.186 312.723 327.519ZM197.333 326.729C195.018 325.365 192.721 323.902 190.505 322.38L191.249 321.246C193.44 322.75 195.711 324.197 197.999 325.546L197.333 326.729ZM326.19 318.536L325.385 317.445C327.496 315.815 329.575 314.093 331.566 312.326L332.441 313.359C330.428 315.146 328.324 316.887 326.19 318.536ZM183.983 317.562C181.869 315.885 179.788 314.114 177.799 312.299L178.688 311.28C180.654 313.073 182.711 314.824 184.802 316.482L183.983 317.562ZM338.333 307.758L337.391 306.789C339.264 304.882 341.095 302.886 342.834 300.856L343.838 301.757C342.079 303.81 340.227 305.829 338.333 307.758V307.758ZM171.98 306.619C170.113 304.667 168.287 302.624 166.553 300.545L167.569 299.658C169.283 301.713 171.088 303.734 172.934 305.664L171.98 306.619ZM348.931 295.387L347.869 294.558C349.469 292.412 351.018 290.18 352.473 287.923L353.587 288.676C352.116 290.958 350.55 293.217 348.931 295.387ZM161.544 294.107C159.952 291.911 158.415 289.631 156.977 287.332L158.101 286.596C159.523 288.868 161.042 291.121 162.617 293.293L161.544 294.107ZM357.782 281.654L356.62 280.981C357.918 278.63 359.154 276.202 360.292 273.764L361.497 274.353C360.345 276.819 359.096 279.275 357.782 281.654H357.782ZM152.874 280.255C151.59 277.855 150.373 275.382 149.256 272.905L150.469 272.333C151.573 274.782 152.776 277.226 154.045 279.598L152.874 280.255Z" fill="#6C63FF"/>
<path d="M146.124 265.272C145.652 263.997 145.193 262.692 144.76 261.392L146.024 260.951C146.452 262.237 146.905 263.527 147.373 264.786L146.124 265.272Z" fill="#6C63FF"/>
<path d="M148.187 178.535L146.949 178.025C147.449 176.751 147.976 175.473 148.515 174.226L149.736 174.779C149.203 176.012 148.682 177.275 148.187 178.535Z" fill="#6C63FF"/>
<path d="M153.245 167.376L152.065 166.738C153.326 164.296 154.689 161.868 156.114 159.521L157.248 160.242C155.839 162.563 154.492 164.963 153.245 167.376ZM357.117 165.386C355.827 162.999 354.436 160.625 352.983 158.331L354.103 157.588C355.573 159.908 356.98 162.309 358.286 164.724L357.117 165.386ZM161.725 153.409L160.642 152.609C162.222 150.369 163.899 148.157 165.626 146.035L166.653 146.91C164.945 149.008 163.287 151.195 161.725 153.409ZM348.379 151.587C346.778 149.405 345.08 147.251 343.333 145.184L344.342 144.29C346.11 146.38 347.827 148.559 349.447 150.766L348.379 151.587ZM172.006 140.773L171.041 139.828C172.907 137.833 174.866 135.878 176.862 134.018L177.761 135.029C175.787 136.867 173.851 138.8 172.006 140.773ZM337.867 139.153C335.985 137.216 334.014 135.321 332.006 133.522L332.887 132.494C334.917 134.314 336.911 136.231 338.814 138.19L337.867 139.153ZM183.888 129.704L183.06 128.633C185.178 126.917 187.381 125.257 189.606 123.698L190.36 124.826C188.16 126.367 185.983 128.008 183.888 129.704ZM325.781 128.317C323.658 126.664 321.451 125.066 319.22 123.566L319.953 122.423C322.21 123.941 324.443 125.558 326.59 127.23L325.781 128.317ZM197.146 120.418L196.47 119.24C198.797 117.841 201.203 116.509 203.619 115.279L204.214 116.503C201.825 117.718 199.447 119.036 197.146 120.418ZM312.352 119.291C310.023 117.951 307.62 116.681 305.212 115.514L305.783 114.279C308.219 115.459 310.65 116.745 313.006 118.099L312.352 119.291ZM211.531 113.1L211.021 111.837C213.516 110.782 216.079 109.805 218.64 108.932L219.061 110.228C216.531 111.092 213.997 112.057 211.531 113.1ZM297.831 112.256C295.344 111.261 292.792 110.345 290.247 109.533L290.645 108.228C293.219 109.05 295.8 109.976 298.317 110.982L297.831 112.256ZM226.77 107.903L226.438 106.579C229.05 105.892 231.722 105.289 234.378 104.79L234.619 106.134C231.993 106.628 229.353 107.223 226.77 107.903ZM282.496 107.359C279.9 106.73 277.249 106.187 274.615 105.745L274.832 104.396C277.495 104.843 280.177 105.393 282.804 106.029L282.496 107.359ZM242.57 104.928L242.42 103.57C245.093 103.261 247.82 103.043 250.525 102.922L250.583 104.287C247.908 104.407 245.212 104.622 242.57 104.928ZM266.644 104.695C263.993 104.441 261.294 104.277 258.621 104.21L258.653 102.844C261.357 102.912 264.087 103.077 266.768 103.334L266.644 104.695Z" fill="#6C63FF"/>
<path d="M362.401 176.483C361.884 175.235 361.34 173.981 360.784 172.758L361.994 172.182C362.556 173.419 363.107 174.687 363.631 175.949L362.401 176.483Z" fill="#6C63FF"/>
<path d="M379.637 222.566C377.884 222.559 376.182 223.175 374.822 224.309C373.463 225.443 372.53 227.025 372.183 228.784C371.836 230.544 372.096 232.372 372.919 233.957C373.742 235.542 375.076 236.786 376.695 237.476C378.314 238.166 380.117 238.26 381.796 237.741C383.475 237.223 384.927 236.124 385.902 234.632C386.878 233.141 387.318 231.349 387.147 229.563C386.976 227.776 386.205 226.106 384.964 224.837C384.268 224.115 383.439 223.543 382.524 223.153C381.609 222.763 380.628 222.564 379.637 222.566Z" fill="#3F3D56"/>
<path d="M349.432 222.566C347.678 222.559 345.976 223.175 344.616 224.309C343.257 225.443 342.324 227.025 341.977 228.784C341.63 230.544 341.89 232.372 342.713 233.957C343.536 235.542 344.871 236.786 346.49 237.476C348.109 238.166 349.912 238.26 351.591 237.741C353.27 237.223 354.721 236.124 355.697 234.632C356.672 233.141 357.112 231.349 356.941 229.563C356.77 227.776 355.999 226.106 354.759 224.837C354.061 224.117 353.231 223.546 352.317 223.156C351.403 222.767 350.422 222.566 349.432 222.566Z" fill="#3F3D56"/>
<path d="M364.534 179.679C357.008 179.679 349.65 181.963 343.392 186.243C337.134 190.523 332.256 196.606 329.376 203.723C326.495 210.84 325.742 218.671 327.21 226.226C328.678 233.781 332.303 240.721 337.625 246.169C342.947 251.616 349.728 255.325 357.11 256.828C364.492 258.331 372.144 257.559 379.098 254.612C386.052 251.664 391.995 246.671 396.177 240.266C400.358 233.861 402.59 226.331 402.59 218.628C402.59 208.298 398.581 198.391 391.444 191.087C384.307 183.783 374.628 179.679 364.534 179.679ZM371.93 195.921C372.414 195.916 372.894 196.01 373.342 196.197C373.79 196.385 374.196 196.662 374.539 197.012C374.881 197.362 375.151 197.778 375.334 198.237C375.517 198.695 375.609 199.186 375.605 199.682C375.609 200.432 375.396 201.167 374.991 201.793C374.586 202.419 374.009 202.908 373.333 203.197C372.656 203.487 371.911 203.564 371.191 203.418C370.472 203.273 369.811 202.912 369.292 202.381C368.774 201.851 368.421 201.174 368.279 200.438C368.137 199.701 368.212 198.939 368.495 198.246C368.778 197.554 369.255 196.963 369.867 196.549C370.479 196.135 371.197 195.916 371.93 195.921ZM349.432 241.335C347.298 241.336 345.211 240.689 343.437 239.476C341.662 238.264 340.278 236.54 339.461 234.522C338.644 232.505 338.43 230.284 338.846 228.142C339.262 226 340.289 224.032 341.798 222.488C343.307 220.944 345.23 219.892 347.323 219.466C349.416 219.041 351.585 219.26 353.556 220.096C355.528 220.932 357.212 222.348 358.397 224.165C359.582 225.981 360.214 228.116 360.213 230.3C360.203 233.224 359.064 236.025 357.044 238.092C355.025 240.159 352.288 241.325 349.432 241.335H349.432ZM366.383 219.337V229.981C366.383 230.483 366.189 230.964 365.842 231.319C365.495 231.674 365.025 231.873 364.535 231.873C364.044 231.873 363.574 231.674 363.227 231.319C362.88 230.964 362.686 230.483 362.686 229.981V222.187C362.686 220.638 360.837 220.295 355.579 217.197C354.897 216.783 353.441 216.05 353.441 213.992C353.453 213 353.838 212.051 354.516 211.343L362.801 203.17C363.194 202.763 363.674 202.455 364.203 202.27C364.733 202.084 365.297 202.027 365.851 202.103C366.405 202.179 366.935 202.385 367.398 202.706C367.862 203.026 368.246 203.453 368.521 203.951L371.93 211.059H377.477C377.966 211.06 378.436 211.259 378.782 211.614C379.128 211.969 379.322 212.45 379.322 212.951C379.322 213.452 379.128 213.933 378.782 214.288C378.436 214.642 377.966 214.842 377.477 214.843H370.844C369.607 214.843 368.614 212.123 366.453 208.753L360.802 214.843C362.871 216.499 366.383 217.776 366.383 219.337H366.383ZM379.637 241.323C377.505 241.323 375.421 240.676 373.648 239.463C371.875 238.251 370.493 236.527 369.677 234.511C368.861 232.495 368.647 230.276 369.063 228.136C369.479 225.996 370.506 224.029 372.014 222.486C373.522 220.943 375.443 219.892 377.534 219.467C379.625 219.041 381.793 219.259 383.763 220.094C385.733 220.93 387.417 222.344 388.602 224.158C389.786 225.973 390.419 228.106 390.419 230.289C390.41 233.212 389.271 236.013 387.251 238.081C385.231 240.148 382.494 241.314 379.637 241.323H379.637Z" fill="#3F3D56"/>
<path d="M472.693 179.679C465.166 179.679 457.809 181.963 451.55 186.243C445.292 190.523 440.414 196.606 437.534 203.723C434.654 210.84 433.9 218.671 435.369 226.226C436.837 233.781 440.461 240.721 445.784 246.169C451.106 251.616 457.887 255.325 465.269 256.828C472.651 258.331 480.303 257.559 487.256 254.612C494.21 251.664 500.154 246.671 504.335 240.266C508.517 233.861 510.749 226.331 510.749 218.628C510.749 208.298 506.739 198.391 499.603 191.087C492.466 183.783 482.786 179.679 472.693 179.679ZM462.605 207.523C463.77 207.55 464.9 207.929 465.855 208.611C466.81 209.293 467.547 210.248 467.974 211.357C468.401 212.466 468.499 213.68 468.255 214.845C468.011 216.011 467.437 217.077 466.604 217.91C465.771 218.743 464.716 219.306 463.572 219.528C462.428 219.751 461.245 219.622 460.172 219.16C459.098 218.697 458.182 217.921 457.538 216.928C456.894 215.935 456.55 214.77 456.55 213.578C456.559 212.773 456.722 211.978 457.031 211.238C457.34 210.498 457.788 209.827 458.351 209.265C458.913 208.703 459.579 208.259 460.309 207.96C461.039 207.661 461.819 207.513 462.605 207.523V207.523ZM494.879 233.766H490.847V227.71H454.54V233.766H450.507V203.49H454.54V221.655H470.671V207.523H486.814C487.862 207.511 488.902 207.71 489.874 208.11C490.846 208.509 491.733 209.101 492.482 209.851C493.231 210.601 493.828 211.495 494.239 212.482C494.651 213.468 494.868 214.528 494.879 215.6V233.766Z" fill="#3F3D56"/>
<path d="M51.4601 208.22H40.1358C40.0133 208.221 39.8959 208.271 39.8093 208.359C39.7227 208.448 39.6739 208.568 39.6736 208.693V225.251C39.6739 225.376 39.7228 225.496 39.8094 225.585C39.896 225.673 40.0133 225.723 40.1358 225.724H51.4601C51.95 225.722 52.4194 225.522 52.7658 225.168C53.1122 224.813 53.3075 224.333 53.3089 223.831V210.113C53.3075 209.611 53.1122 209.131 52.7658 208.776C52.4194 208.422 51.95 208.222 51.4601 208.22Z" fill="#3F3D56"/>
<path d="M48.9179 229.272C48.3897 229.316 47.8848 229.513 47.4629 229.842C47.0409 230.17 46.7196 230.615 46.5368 231.124C46.3541 231.633 46.3175 232.185 46.4314 232.715C46.5454 233.245 46.805 233.73 47.1798 234.114C47.5545 234.497 48.0287 234.763 48.5463 234.879C49.0639 234.996 49.6033 234.959 50.1008 234.772C50.5982 234.585 51.033 234.256 51.3537 233.824C51.6744 233.392 51.8677 232.875 51.9107 232.335C51.9425 231.924 51.8869 231.511 51.7477 231.125C51.6085 230.739 51.3891 230.388 51.1046 230.097C50.8201 229.805 50.4773 229.581 50.0997 229.438C49.7222 229.296 49.319 229.239 48.9179 229.272Z" fill="#3F3D56"/>
<path d="M26.7431 229.272C26.2148 229.316 25.7099 229.513 25.288 229.842C24.8661 230.17 24.5448 230.615 24.362 231.124C24.1792 231.633 24.1427 232.185 24.2566 232.715C24.3705 233.245 24.6302 233.73 25.005 234.114C25.3797 234.497 25.8539 234.763 26.3715 234.879C26.8891 234.996 27.4285 234.959 27.9259 234.772C28.4234 234.585 28.8582 234.256 29.1789 233.824C29.4996 233.392 29.6929 232.875 29.7359 232.335C29.7677 231.924 29.712 231.511 29.5729 231.125C29.4337 230.739 29.2143 230.388 28.9298 230.097C28.6453 229.805 28.3024 229.581 27.9249 229.438C27.5474 229.296 27.1442 229.239 26.7431 229.272Z" fill="#3F3D56"/>
<path d="M35.9758 208.22H24.6746C24.1787 208.222 23.7037 208.425 23.353 208.784C23.0023 209.142 22.8045 209.629 22.8027 210.136V223.808C22.8045 224.315 23.0023 224.801 23.353 225.16C23.7037 225.519 24.1787 225.722 24.6746 225.724H35.9758C36.0983 225.723 36.2157 225.673 36.3023 225.585C36.3889 225.496 36.4377 225.376 36.438 225.251V208.693C36.4377 208.568 36.3889 208.448 36.3023 208.359C36.2157 208.271 36.0983 208.221 35.9758 208.22Z" fill="#3F3D56"/>
<path d="M38.0558 179.679C30.5291 179.679 23.1714 181.963 16.9131 186.243C10.6549 190.523 5.7772 196.606 2.89684 203.723C0.0164897 210.84 -0.737143 218.671 0.731248 226.226C2.19964 233.781 5.82411 240.721 11.1463 246.169C16.4685 251.616 23.2494 255.325 30.6315 256.828C38.0136 258.331 45.6654 257.559 52.6191 254.612C59.5729 251.664 65.5164 246.671 69.6981 240.266C73.8797 233.861 76.1116 226.331 76.1116 218.628C76.1116 208.298 72.1022 198.391 64.9653 191.087C57.8285 183.783 48.1488 179.679 38.0558 179.679ZM56.5445 234.475C56.5409 235.729 56.0527 236.93 55.1867 237.816C54.3206 238.703 53.1471 239.202 51.9223 239.206H24.1893C22.9646 239.202 21.791 238.703 20.9249 237.816C20.0589 236.93 19.5708 235.729 19.5672 234.475V201.834C19.57 200.831 19.9605 199.87 20.6534 199.161C21.3462 198.452 22.2851 198.052 23.2649 198.05H52.8468C53.8266 198.052 54.7654 198.452 55.4583 199.161C56.1511 199.87 56.5416 200.831 56.5445 201.834V234.475Z" fill="#3F3D56"/>
<path d="M51.5756 201.361H24.536C24.3142 201.345 24.0915 201.376 23.882 201.453C23.6724 201.529 23.4804 201.648 23.3178 201.803C23.1553 201.959 23.0257 202.147 22.937 202.355C22.8484 202.564 22.8027 202.789 22.8027 203.017C22.8027 203.244 22.8484 203.469 22.937 203.678C23.0257 203.887 23.1553 204.075 23.3178 204.23C23.4804 204.385 23.6724 204.505 23.882 204.581C24.0915 204.657 24.3142 204.688 24.536 204.672H51.5756C51.7975 204.688 52.0201 204.657 52.2297 204.581C52.4392 204.505 52.6312 204.385 52.7938 204.23C52.9564 204.075 53.086 203.887 53.1746 203.678C53.2632 203.469 53.309 203.244 53.309 203.017C53.309 202.789 53.2632 202.564 53.1746 202.355C53.086 202.147 52.9564 201.959 52.7938 201.803C52.6312 201.648 52.4392 201.529 52.2297 201.453C52.0201 201.376 51.7975 201.345 51.5756 201.361Z" fill="#3F3D56"/>
<path d="M151.966 219.692C151.204 219.692 150.58 220.851 150.58 222.294C150.58 223.737 151.204 224.896 151.966 224.896C152.729 224.896 153.353 223.737 153.353 222.294C153.353 220.851 152.729 219.692 151.966 219.692Z" fill="#3F3D56"/>
<path d="M141.798 219.692C141.035 219.692 140.411 220.851 140.411 222.294C140.411 223.737 141.035 224.896 141.798 224.896C142.56 224.896 143.184 223.737 143.184 222.294C143.184 220.851 142.56 219.692 141.798 219.692Z" fill="#3F3D56"/>
<path d="M146.882 179.679C139.355 179.679 131.998 181.963 125.739 186.243C119.481 190.523 114.603 196.606 111.723 203.723C108.843 210.84 108.089 218.671 109.557 226.226C111.026 233.781 114.65 240.721 119.973 246.169C125.295 251.616 132.076 255.325 139.458 256.828C146.84 258.331 154.492 257.559 161.445 254.612C168.399 251.664 174.343 246.671 178.524 240.266C182.706 233.861 184.938 226.331 184.938 218.628C184.938 208.298 180.928 198.391 173.792 191.087C166.655 183.783 156.975 179.679 146.882 179.679ZM129.087 217.303L131.19 205.855C131.733 202.745 133.143 200.297 135.789 200.297H139.764L139.995 199.362C140.197 198.547 140.66 197.824 141.308 197.308C141.957 196.792 142.755 196.512 143.577 196.512H150.164C150.984 196.512 151.781 196.79 152.429 197.304C153.078 197.818 153.541 198.538 153.746 199.35L153.977 200.297H157.975C160.564 200.297 161.939 202.697 162.586 205.843V205.855L164.7 217.315C164.717 217.401 164.711 217.489 164.681 217.571C164.652 217.653 164.6 217.725 164.533 217.779C164.466 217.833 164.386 217.867 164.301 217.877C164.216 217.887 164.131 217.872 164.053 217.835L161.118 216.452C161.049 216.422 160.988 216.375 160.942 216.315C160.895 216.255 160.865 216.184 160.853 216.109L158.981 205.985C158.634 204.684 158.149 204.093 157.12 204.093H136.656C135.639 204.093 135.084 204.72 134.795 205.985L132.923 216.109C132.909 216.183 132.877 216.254 132.831 216.313C132.785 216.373 132.725 216.42 132.657 216.452L129.734 217.823C129.656 217.859 129.571 217.873 129.487 217.862C129.403 217.852 129.323 217.818 129.256 217.764C129.189 217.711 129.138 217.639 129.108 217.558C129.078 217.477 129.071 217.388 129.087 217.303ZM169.843 224.671L163.522 240.743C160.344 240.743 156.97 238.141 156.97 238.141C154.89 239.218 150.834 240.164 147.806 240.341C147.483 240.353 147.171 240.365 146.882 240.365C146.593 240.365 146.281 240.365 145.958 240.341C142.93 240.164 138.874 239.206 136.794 238.141C136.794 238.141 133.42 240.743 130.242 240.743L123.921 224.671C123.824 224.419 123.773 224.15 123.771 223.879C123.771 223.47 123.886 223.071 124.101 222.727C124.316 222.384 124.622 222.11 124.985 221.939L146.489 211.827C146.61 211.769 146.742 211.739 146.876 211.739C147.01 211.739 147.142 211.769 147.263 211.827L168.78 221.939C169.142 222.11 169.448 222.384 169.663 222.727C169.878 223.071 169.993 223.47 169.993 223.879C169.991 224.15 169.94 224.419 169.843 224.671Z" fill="#3F3D56"/>
<path d="M255.708 179.679C248.182 179.679 240.824 181.963 234.566 186.243C228.307 190.523 223.43 196.606 220.549 203.723C217.669 210.84 216.915 218.671 218.384 226.226C219.852 233.781 223.477 240.721 228.799 246.169C234.121 251.616 240.902 255.325 248.284 256.828C255.666 258.331 263.318 257.559 270.272 254.612C277.225 251.664 283.169 246.671 287.351 240.266C291.532 233.861 293.764 226.331 293.764 218.628C293.764 208.298 289.755 198.391 282.618 191.087C275.481 183.783 265.801 179.679 255.708 179.679ZM273.239 222.424C272.846 222.424 271.541 222.412 271.159 222.389L263.66 222.187C263.621 222.186 263.582 222.196 263.548 222.214C263.514 222.233 263.485 222.26 263.463 222.294L252.208 239.513C252.042 239.782 251.811 240.003 251.539 240.156C251.266 240.309 250.96 240.389 250.648 240.388H247.91C247.263 240.388 247.043 239.726 247.274 239.111L253.064 222.211C253.077 222.176 253.082 222.138 253.078 222.101C253.074 222.063 253.061 222.027 253.041 221.996C253.02 221.965 252.993 221.939 252.961 221.921C252.928 221.903 252.892 221.893 252.856 221.892L238.793 221.572C238.646 221.569 238.502 221.6 238.369 221.664C238.237 221.728 238.121 221.822 238.03 221.939L233.674 227.344C233.499 227.568 233.278 227.749 233.026 227.874C232.774 227.999 232.498 228.064 232.218 228.065H230.288C230.214 228.066 230.141 228.049 230.075 228.014C230.009 227.98 229.952 227.93 229.909 227.869C229.866 227.807 229.838 227.736 229.827 227.661C229.817 227.586 229.824 227.51 229.849 227.438L232.148 219.314C232.322 218.861 232.322 218.359 232.148 217.906L229.849 209.781C229.824 209.71 229.817 209.634 229.827 209.559C229.838 209.484 229.866 209.413 229.909 209.351C229.952 209.29 230.009 209.24 230.075 209.206C230.141 209.171 230.214 209.154 230.288 209.155H232.229C232.51 209.153 232.787 209.217 233.039 209.342C233.291 209.467 233.512 209.65 233.685 209.876L237.961 215.198C238.051 215.316 238.167 215.411 238.299 215.475C238.432 215.538 238.577 215.569 238.723 215.565L252.867 215.352C252.904 215.352 252.941 215.342 252.973 215.324C253.006 215.306 253.034 215.28 253.054 215.249C253.075 215.217 253.087 215.181 253.091 215.143C253.095 215.106 253.089 215.067 253.075 215.032L247.286 198.144C247.055 197.529 247.274 196.867 247.921 196.867H250.66C250.971 196.868 251.277 196.948 251.549 197.101C251.822 197.254 252.052 197.474 252.22 197.742L263.463 214.973C263.484 215.008 263.512 215.036 263.547 215.055C263.582 215.073 263.621 215.082 263.66 215.08L271.159 214.879C271.529 214.855 272.846 214.843 273.239 214.843C278.37 214.843 281.594 216.546 281.594 218.639C281.594 220.733 278.358 222.424 273.239 222.424Z" fill="#3F3D56"/>
<path d="M43.8459 349.916C42.2613 349.916 40.7123 349.435 39.3948 348.534C38.0772 347.633 37.0504 346.352 36.444 344.854C35.8376 343.356 35.6789 341.707 35.9881 340.116C36.2972 338.526 37.0602 337.065 38.1807 335.918C39.3012 334.771 40.7287 333.99 42.2828 333.674C43.837 333.358 45.4479 333.52 46.9118 334.141C48.3758 334.761 49.627 335.812 50.5074 337.161C51.3877 338.509 51.8576 340.094 51.8576 341.716C51.8552 343.89 51.0103 345.974 49.5083 347.512C48.0064 349.049 45.97 349.913 43.8459 349.916ZM43.8459 334.883C42.5254 334.883 41.2346 335.284 40.1366 336.035C39.0387 336.786 38.1829 337.853 37.6776 339.101C37.1723 340.35 37.0401 341.724 37.2977 343.049C37.5553 344.375 38.1912 345.592 39.1249 346.548C40.0586 347.504 41.2482 348.154 42.5433 348.418C43.8384 348.682 45.1809 348.546 46.4008 348.029C47.6208 347.512 48.6635 346.636 49.3971 345.512C50.1308 344.389 50.5223 343.068 50.5223 341.716C50.5203 339.905 49.8163 338.168 48.5647 336.887C47.313 335.606 45.616 334.885 43.8459 334.883Z" fill="#F0F0F0"/>
<path d="M212.76 166.106C211.176 166.106 209.627 165.625 208.309 164.724C206.992 163.823 205.965 162.542 205.358 161.044C204.752 159.545 204.593 157.897 204.902 156.306C205.212 154.716 205.975 153.255 207.095 152.108C208.215 150.961 209.643 150.18 211.197 149.864C212.751 149.547 214.362 149.71 215.826 150.33C217.29 150.951 218.541 152.002 219.422 153.35C220.302 154.699 220.772 156.284 220.772 157.906C220.77 160.08 219.925 162.164 218.423 163.701C216.921 165.238 214.884 166.103 212.76 166.106ZM212.76 151.073C211.44 151.073 210.149 151.474 209.051 152.224C207.953 152.975 207.097 154.042 206.592 155.291C206.087 156.54 205.954 157.913 206.212 159.239C206.47 160.564 207.106 161.782 208.039 162.738C208.973 163.693 210.163 164.344 211.458 164.608C212.753 164.871 214.095 164.736 215.315 164.219C216.535 163.702 217.578 162.826 218.311 161.702C219.045 160.578 219.437 159.257 219.437 157.906C219.435 156.094 218.731 154.357 217.479 153.076C216.227 151.795 214.53 151.075 212.76 151.073Z" fill="#F0F0F0"/>
<path d="M361.96 391.167L352.97 381.303L362.608 372.102L371.598 381.966L361.96 391.167ZM354.403 381.354L362.01 389.701L370.165 381.915L362.558 373.569L354.403 381.354Z" fill="#F0F0F0"/>
</g>
<defs>
<clipPath id="clip0">
<rect width="682" height="535" fill="white"/>
</clipPath>
</defs>
</svg>
