<svg width="40" height="40" viewBox="0 0 40 40" fill="none" xmlns="http://www.w3.org/2000/svg">
<path d="M39.1642 7.97632C38.7041 5.82072 37.3487 4.12303 35.6277 3.5469C32.5084 2.5 20 2.5 20 2.5C20 2.5 7.49171 2.5 4.37226 3.5469C2.65129 4.12313 1.29587 5.82072 0.835839 7.97632C0 11.8835 0 20.0354 0 20.0354C0 20.0354 0 28.1873 0.835839 32.0944C1.29587 34.25 2.65129 35.877 4.37226 36.4531C7.49171 37.5 20 37.5 20 37.5C20 37.5 32.5083 37.5 35.6277 36.4531C37.3487 35.877 38.7041 34.25 39.1642 32.0944C40 28.1873 40 20.0354 40 20.0354C40 20.0354 40 11.8835 39.1642 7.97632ZM15.9091 27.4367V12.634L26.3636 20.0355L15.9091 27.4367Z" fill="#858484"/>
</svg>
