<svg width="40" height="40" viewBox="0 0 40 40" fill="none" xmlns="http://www.w3.org/2000/svg">
<path d="M19.9999 0.625C9.29675 0.625 0.624878 9.29688 0.624878 20C0.624878 30.7031 9.29675 39.375 19.9999 39.375C30.703 39.375 39.3749 30.7031 39.3749 20C39.3749 9.29688 30.703 0.625 19.9999 0.625ZM29.4999 25.0859C29.8671 25.4531 29.8671 26.0469 29.4999 26.4141L26.4061 29.5C26.0389 29.8672 25.4452 29.8672 25.078 29.5L19.9999 24.375L14.9139 29.5C14.5468 29.8672 13.953 29.8672 13.5858 29.5L10.4999 26.4062C10.1327 26.0391 10.1327 25.4453 10.4999 25.0781L15.6249 20L10.4999 14.9141C10.1327 14.5469 10.1327 13.9531 10.4999 13.5859L13.5936 10.4922C13.9608 10.125 14.5546 10.125 14.9218 10.4922L19.9999 15.625L25.0858 10.5C25.453 10.1328 26.0468 10.1328 26.4139 10.5L29.5077 13.5938C29.8749 13.9609 29.8749 14.5547 29.5077 14.9219L24.3749 20L29.4999 25.0859Z" fill="#4E4E4E"/>
</svg>
