<svg width="40" height="40" viewBox="0 0 40 40" fill="none" xmlns="http://www.w3.org/2000/svg">
<g clip-path="url(#clip0)">
<path d="M35.7143 2.5H4.28571C3.14907 2.5 2.05898 2.89509 1.25526 3.59835C0.451529 4.30161 0 5.25544 0 6.25L0 33.75C0 34.7446 0.451529 35.6984 1.25526 36.4016C2.05898 37.1049 3.14907 37.5 4.28571 37.5H16.5402V25.6008H10.9152V20H16.5402V15.7312C16.5402 10.8758 19.8438 8.19375 24.9036 8.19375C27.3268 8.19375 29.8607 8.57188 29.8607 8.57188V13.3375H27.0688C24.3179 13.3375 23.4598 14.8312 23.4598 16.3633V20H29.6009L28.6188 25.6008H23.4598V37.5H35.7143C36.8509 37.5 37.941 37.1049 38.7447 36.4016C39.5485 35.6984 40 34.7446 40 33.75V6.25C40 5.25544 39.5485 4.30161 38.7447 3.59835C37.941 2.89509 36.8509 2.5 35.7143 2.5Z" fill="#858484"/>
</g>
<defs>
<clipPath id="clip0">
<rect width="40" height="40" fill="white"/>
</clipPath>
</defs>
</svg>
